<?xml version="1.0" encoding="UTF-8"?>
<svg viewBox="0 0 500 513.76" xmlns="http://www.w3.org/2000/svg">
<defs>
<radialGradient id="a" cy=".468" r=".494" gradientTransform="matrix(1.018 .005 -.006 1.053 -.006 -.027)">
<stop stop-color="#fff" stop-opacity="0" offset="0"/>
<stop stop-color="#fff" offset=".761"/>
<stop stop-color="#fff" offset="1"/>
</radialGradient>
<linearGradient id="b" x1=".31" x2=".742" y1="-.434" y2="1.389">
<stop stop-color="#57c0d6" offset="0"/>
<stop stop-color="#57d6d2" offset="1"/>
</linearGradient>
</defs>
<g transform="translate(0 4.764)" data-name="Leet logo">
<rect width="500" height="500" fill="#fff" data-name="Rectangle 4"/>
<g transform="translate(-706 -32)" fill="none" stroke="#ededed" stroke-linecap="round" stroke-width="23">
<line transform="translate(827.39 43.5)" x2="141.11" y1="140.83" data-name="Line 6"/>
<line transform="translate(968.39 43.5)" x2="141.11" y1="140.83" data-name="Line 6"/>
<line transform="translate(1109.4 117.5)" x2="67.114" y1="66.832" data-name="Line 6"/>
<line transform="translate(723.5 132)" x2="155.32" y1="155.5" data-name="Line 6"/>
<line transform="translate(827.39 132)" x2="192.44" y1="195.33" data-name="Line 6"/>
<line transform="translate(968.39 132)" x2="192.44" y1="195.33" data-name="Line 6"/>
<line transform="translate(1109.4 259.5)" x2="67.114" y1="67.832" data-name="Line 6"/>
<line transform="translate(723.5 275)" x2="155.32" y1="155.5" data-name="Line 6"/>
<line transform="translate(827.39 275)" x2="192.44" y1="195.33" data-name="Line 6"/>
<line transform="translate(968.39 275)" x2="192.44" y1="195.33" data-name="Line 6"/>
<line transform="translate(781.5 418)" x2="97.324" y1="97.5" data-name="Line 6"/>
<line transform="translate(922.5 418)" x2="97.324" y1="97.5" data-name="Line 6"/>
</g>
<rect width="500" height="509" fill="url(#a)" data-name="Rectangle 3"/>
<g transform="translate(-676.8 -159.01)">
<g transform="translate(835.87 333.99)" fill="#57cfd6" data-name="Group 9">
<path transform="translate(87.903)" d="M0,60.788,61.242,0" stroke="#c8c8c8" stroke-linecap="round" stroke-width="14" data-name="Path 17"/>
<path transform="translate(0 59.259)" d="M0,90.091,89.432,0" stroke="#c8c8c8" stroke-linecap="round" stroke-width="14" data-name="Path 19"/>
<g transform="translate(71.569 44.454)" data-name="Path 18">
<path d="m16.334 30.168c-3.6952 0-7.1692-1.439-9.7822-4.0519s-4.0519-6.087-4.0519-9.7822c0-3.6952 1.439-7.1692 4.0519-9.7822s6.0869-4.0519 9.7822-4.0519c3.6952 0 7.1693 1.439 9.7822 4.0519s4.0519 6.0869 4.0519 9.7822c0 3.6952-1.439 7.1693-4.0519 9.7822s-6.087 4.0519-9.7822 4.0519z"/>
<path d="m16.334 5c-3.0274 0-5.8737 1.1789-8.0144 3.3197-2.1407 2.1407-3.3197 4.987-3.3197 8.0144 0 3.0274 1.1789 5.8737 3.3197 8.0144 2.1407 2.1407 4.987 3.3197 8.0144 3.3197 3.0274 0 5.8737-1.179 8.0144-3.3197 2.1407-2.1407 3.3197-4.9869 3.3197-8.0144 0-3.0274-1.179-5.8737-3.3197-8.0144-2.1407-2.1407-4.987-3.3197-8.0144-3.3197m0-5c9.021 0 16.334 7.313 16.334 16.334 0 9.021-7.313 16.334-16.334 16.334-9.0211 0-16.334-7.313-16.334-16.334 0-9.0211 7.313-16.334 16.334-16.334z" fill="#fff"/>
</g>
</g>
<g transform="translate(810.8 416.01)" fill="url(#b)" stroke-linecap="round" data-name="Path 23">
<path d="m215.55 1h-1-10.283-1v-1-36.166h-11.917-1v-1-8.3472-1h1 36.182 1v1 8.3472 1h-1-11.981v36.166 1zm-55.594 0h-1-27.295-1v-1-45.513-1h1 26.248 1v1 8.3472 1h-1-14.996v8.1245h13.885 1v1 8.3154 1h-1-13.885v8.4102h16.043 1v1 8.3154 1zm-63.91 0h-1-27.295-1v-1-45.513-1h1 26.248 1v1 8.3472 1h-1-14.996v8.1245h13.885 1v1 8.3154 1h-1-13.885v8.4102h16.043 1v1 8.3154 1zm-62.735 0h-1-27.104-1v-1-45.513-1h1 10.251 1v1 36.197h15.853 1v1 8.3154 1z"/>
<path d="m214.55 5.2849e-6v-37.166h12.981v-8.3472h-36.182v8.3472h12.918v37.166h10.283m-55.594 0v-8.3154h-17.043v-10.41h14.885v-8.3154h-14.885v-10.125h15.996v-8.3472h-26.248v45.513h27.295m-63.91 0v-8.3154h-17.043v-10.41h14.885v-8.3154h-14.885v-10.125h15.996v-8.3472h-26.248v45.513h27.295m-62.735 0v-8.3154h-16.853v-37.197h-10.251v45.513h27.104m184.24 2h-2-10.283-2v-2-35.166h-10.918-2v-2-8.3472-2h2 36.182 2v2 8.3472 2h-2-10.981v35.166 2zm-55.594 0h-2-27.295-2v-2-45.513-2h2 26.248 2v2 8.3472 2h-2-13.996v6.1245h12.885 2v2 8.3154 2h-2-12.885v6.4101h15.043 2v2 8.3154 2zm-63.91 0h-2-27.295-2v-2-45.513-2h2 26.248 2v2 8.3472 2h-2-13.996v6.1245h12.885 2v2 8.3154 2h-2-12.885v6.4101h15.043 2v2 8.3154 2zm-62.735 0h-2-27.104-2v-2-45.513-2h2 10.251 2v2 35.197h14.853 2v2 8.3154 2z" fill="#fff"/>
</g>
</g>
</g>
</svg>
